<svg version="1.1" id="Layer_1" xmlns="http://www.w3.org/2000/svg" xmlns:xlink="http://www.w3.org/1999/xlink" x="0px" y="0px"
	 width="100%" viewBox="0 0 1200 1200" enable-background="new 0 0 1200 1200" xml:space="preserve">
<path fill="#D74F63" opacity="1.000000" stroke="none" 
	d="
M1.000000,469.000000 
	C1.000000,313.014496 1.000000,157.028976 1.000000,1.021730 
	C400.948364,1.021730 800.896729,1.021730 1200.922607,1.021730 
	C1200.922607,400.911194 1200.922607,800.822449 1200.922607,1200.866821 
	C801.000000,1200.866821 401.000031,1200.866821 1.000007,1200.872314 
	C1.000000,1078.222534 1.000000,955.567200 1.373187,832.604797 
	C25.863792,834.880493 49.981213,837.463196 74.463707,840.178833 
	C78.151466,840.423950 81.474152,840.536194 85.257263,840.698730 
	C87.876625,840.726929 90.035561,840.704773 92.607315,840.758545 
	C95.957703,840.571228 98.895264,840.308105 102.124222,839.992554 
	C102.598450,839.865662 102.781296,839.791321 103.331558,839.653809 
	C114.074913,837.246399 122.466759,831.914062 128.950409,823.099854 
	C154.452621,824.694641 179.528564,827.067871 204.646820,827.666443 
	C233.469360,828.353333 262.165771,829.551453 290.875153,832.622498 
	C329.833893,836.790039 368.590759,841.981018 407.020874,849.580139 
	C487.549286,865.503784 566.411438,887.817688 644.971619,911.353821 
	C664.247803,917.128784 683.810974,922.142395 703.501770,926.266785 
	C716.079529,928.901184 728.187439,926.537476 736.889038,914.871765 
	C738.339478,913.532654 739.620789,912.439148 740.504822,911.086182 
	C751.295349,894.572083 755.211365,876.554260 752.507080,857.130615 
	C753.631653,857.521790 754.388611,857.882507 755.181946,858.123291 
	C777.728333,864.965576 800.219116,872.000671 822.852173,878.543762 
	C834.621948,881.946289 846.422302,885.787415 858.962036,885.094482 
	C871.906799,884.379211 883.374451,880.977844 891.079407,869.187744 
	C896.819824,860.403687 900.380981,851.064636 902.549744,840.824463 
	C906.152466,823.814453 901.014465,810.636536 890.189392,802.446838 
	C883.229553,797.181396 875.269470,793.237976 868.124878,788.553833 
	C874.484680,787.151428 880.543945,786.148499 886.453125,784.580322 
	C894.078552,782.556519 901.010803,779.130615 906.369141,772.686829 
	C907.078674,772.036926 907.537109,771.488953 907.993530,770.973755 
	C907.991516,771.006653 907.926514,770.996216 908.224304,770.822754 
	C909.621521,769.050964 911.078735,767.589417 911.752075,765.828247 
	C913.616882,760.950378 915.154846,755.947693 917.219849,750.935791 
	C922.077881,750.987122 926.540710,751.253113 930.997925,751.179993 
	C950.773499,750.855896 970.562378,750.784546 990.317932,749.947998 
	C1009.414978,749.139404 1028.610229,748.310059 1046.670776,740.833191 
	C1056.529785,736.751648 1064.328735,730.628662 1068.561157,720.345276 
	C1072.211426,711.476379 1073.268311,702.316223 1072.375977,692.994019 
	C1070.402466,672.381104 1063.531616,658.871582 1040.002319,652.138550 
	C1026.225952,648.196289 1012.111633,648.487366 998.001343,648.580261 
	C998.592957,645.812500 999.174927,643.431641 1000.240112,641.010681 
	C1027.141602,641.398010 1053.562500,642.237061 1079.977417,642.083557 
	C1093.704102,642.003845 1107.627808,641.302002 1121.087280,638.834167 
	C1136.741333,635.963745 1150.168701,628.198181 1155.249146,611.671387 
	C1157.664185,603.815308 1159.146484,595.407776 1159.381470,587.202271 
	C1159.839478,571.203552 1153.518921,558.509827 1138.605103,550.854919 
	C1128.332031,545.581909 1117.199951,543.131165 1106.027832,542.338928 
	C1081.497070,540.599426 1056.891724,539.471802 1032.302246,539.121094 
	C1007.110413,538.761719 981.901978,539.722168 956.699280,539.926575 
	C936.464783,540.090759 916.227966,540.048401 895.992493,539.978760 
	C886.005798,539.944336 876.019653,539.473206 866.033875,539.495850 
	C847.578491,539.537598 829.123718,539.813049 810.668396,539.961670 
	C795.375732,540.084778 780.022217,539.338379 764.803833,540.453918 
	C740.386108,542.243652 716.045288,544.119141 691.623291,541.011475 
	C684.642700,540.123169 677.978455,538.596924 672.169678,534.084229 
	C668.896790,531.541626 668.375793,528.653748 669.600586,525.327820 
	C671.551392,520.030457 673.950012,514.899475 676.095337,509.671906 
	C680.533081,498.858063 684.136597,487.923492 683.690063,475.925537 
	C683.162292,461.747864 679.180969,448.603058 671.701172,436.788544 
	C664.096863,424.777527 654.058289,415.303314 640.064941,410.533295 
	C625.124146,405.440308 609.652832,403.673004 594.134338,401.776855 
	C585.156189,400.679810 576.054749,400.044281 568.310303,394.023529 
	C560.131531,387.665039 552.573669,380.783264 549.421936,370.765900 
	C545.386780,357.940948 545.672607,344.512268 548.810486,331.690155 
	C553.351135,313.135864 559.158569,294.878693 564.798157,276.609772 
	C570.581055,257.876282 578.030090,239.622803 579.610657,219.771835 
	C580.429016,209.494324 578.173706,200.162811 571.822754,192.122986 
	C561.544006,179.110855 547.341431,172.032990 531.633362,168.679764 
	C523.198853,166.879211 514.088379,166.590958 505.586273,170.317871 
	C496.618530,174.248886 489.297882,180.485931 483.961395,188.345230 
	C470.982819,207.459229 457.438782,226.363083 446.450104,246.614548 
	C429.077423,278.631439 413.916443,311.840546 397.174408,344.211517 
	C391.016937,356.117065 383.028259,367.075500 375.875122,377.977173 
	C378.896179,362.169128 381.445038,346.737762 385.051758,331.557739 
	C390.087311,310.364044 396.608978,289.508118 401.195343,268.227600 
	C405.383087,248.796600 400.030609,231.844772 383.201355,219.821793 
	C370.498230,210.746582 356.984070,203.385345 340.516968,202.030273 
	C323.489655,199.487686 310.848450,206.030304 300.956543,218.916824 
	C299.029297,221.427505 297.049835,223.907211 295.270813,226.521194 
	C273.899231,257.923462 257.129150,291.788208 241.988312,326.507385 
	C230.337631,353.223297 219.800919,380.464172 204.309708,405.342377 
	C189.008026,429.916229 170.426468,451.496033 146.353821,468.385468 
	C143.636398,468.483337 141.316071,468.804443 139.004868,468.748566 
	C116.411827,468.202393 93.822998,467.431061 71.227440,467.058197 
	C55.779324,466.803253 40.318394,466.881805 24.871157,467.199005 
	C16.905138,467.362610 8.956495,468.372528 1.000000,469.000000 
z"/>
<path fill="#757DCD" opacity="1.000000" stroke="none" 
	d="
M102.964142,839.716919 
	C102.781296,839.791321 102.598450,839.865662 101.705986,839.950562 
	C98.062401,840.201599 95.128441,840.442139 92.194489,840.682678 
	C90.035561,840.704773 87.876625,840.726929 84.908188,840.556458 
	C80.765327,840.257874 77.431984,840.151917 74.098633,840.045898 
	C49.981213,837.463196 25.863792,834.880493 1.373187,832.148865 
	C1.000000,723.979126 1.000000,615.958191 1.468233,507.447571 
	C22.285446,505.895844 42.650951,505.070465 62.974953,503.650879 
	C70.683815,503.112366 78.297073,501.205139 85.976959,499.960876 
	C86.000000,500.000000 85.953873,499.922272 86.214386,499.893677 
	C86.928284,499.631958 87.381660,499.398834 88.170494,499.072021 
	C90.235367,498.442261 91.964790,497.906128 93.754547,497.762970 
	C93.939690,499.500153 94.064507,500.844360 93.989235,502.453247 
	C90.308838,506.286713 86.402122,509.534363 83.427055,513.483765 
	C74.000160,525.998230 69.656677,540.851929 66.296547,555.733215 
	C59.379177,586.368774 56.882080,617.571411 56.634979,649.092896 
	C56.530499,649.523010 56.574631,649.802734 56.696915,650.442749 
	C56.536377,652.825623 56.395626,654.832947 56.196194,657.269775 
	C56.170216,658.851257 56.202923,660.003296 56.252701,661.522522 
	C56.262688,662.869934 56.255596,663.850098 56.189278,665.309814 
	C56.430424,671.873657 56.730797,677.957947 57.050377,684.475464 
	C58.433247,700.261475 59.378475,715.665771 61.263683,730.954163 
	C63.769176,751.272766 67.010223,771.593872 74.316818,790.787720 
	C79.785225,805.152893 87.637627,818.196106 104.465218,821.925781 
	C103.896378,827.146301 103.556839,832.072388 103.140251,837.332275 
	C103.030182,838.349670 102.997162,839.033325 102.964142,839.716919 
z"/>
<path fill="#7C2D6C" opacity="1.000000" stroke="none" 
	d="
M93.694214,497.369995 
	C91.964790,497.906128 90.235367,498.442261 87.922424,499.115295 
	C86.877228,499.475555 86.415550,499.698914 85.953873,499.922272 
	C85.953873,499.922272 86.000000,500.000000 85.523476,499.953796 
	C78.762337,500.458313 72.487907,501.248077 66.191261,501.516449 
	C44.465023,502.442474 22.731035,503.186615 1.000000,504.000000 
	C1.000000,492.645782 1.000000,481.291534 1.000000,469.468658 
	C8.956495,468.372528 16.905138,467.362610 24.871157,467.199005 
	C40.318394,466.881805 55.779324,466.803253 71.227440,467.058197 
	C93.822998,467.431061 116.411827,468.202393 139.004868,468.748566 
	C141.316071,468.804443 143.636398,468.483337 146.157349,468.594330 
	C133.784241,479.258728 120.741768,488.980164 105.656265,496.047760 
	C101.440361,496.392639 97.567291,496.881317 93.694214,497.369995 
z"/>
<path fill="#403E89" opacity="1.000000" stroke="none" 
	d="
M1.000000,504.375000 
	C22.731035,503.186615 44.465023,502.442474 66.191261,501.516449 
	C72.487907,501.248077 78.762337,500.458313 85.500427,499.914673 
	C78.297073,501.205139 70.683815,503.112366 62.974953,503.650879 
	C42.650951,505.070465 22.285446,505.895844 1.468233,506.978882 
	C1.000000,506.250000 1.000000,505.500000 1.000000,504.375000 
z"/>
<path fill="#BC9C92" opacity="1.000000" stroke="none" 
	d="
M105.999100,496.191559 
	C120.741768,488.980164 133.784241,479.258728 146.558685,468.642639 
	C170.426468,451.496033 189.008026,429.916229 204.309708,405.342377 
	C219.800919,380.464172 230.337631,353.223297 241.988312,326.507385 
	C257.129150,291.788208 273.899231,257.923462 295.270813,226.521194 
	C297.049835,223.907211 299.029297,221.427505 300.956543,218.916824 
	C310.848450,206.030304 323.489655,199.487686 340.815552,202.236664 
	C352.162750,207.215469 363.315399,211.031052 373.198883,216.961670 
	C390.193451,227.159286 399.296936,242.453934 397.081726,262.927979 
	C396.243927,270.671265 394.801880,278.414062 392.875092,285.963074 
	C385.918060,313.220245 378.370819,340.328735 371.599884,367.630585 
	C368.548920,379.932739 367.697388,392.546082 370.278778,405.226227 
	C373.682373,421.945190 391.677124,435.791962 403.659576,437.685516 
	C410.390503,438.749176 417.224640,439.159576 424.475037,439.885834 
	C431.633087,440.277740 438.328461,440.648102 445.376160,441.178955 
	C449.337708,441.918335 452.944672,442.511719 456.556519,443.073700 
	C476.312073,446.147430 495.034790,451.700928 508.772827,467.396606 
	C520.687012,481.008545 527.653870,496.463715 525.470093,515.286865 
	C523.824524,529.471619 517.816772,541.592102 509.961914,553.110291 
	C508.005737,555.978760 505.957428,558.919189 504.734558,562.125183 
	C502.101105,569.029602 503.886963,573.670105 511.057068,575.567566 
	C519.952148,577.921509 529.216797,578.879456 538.702698,580.461182 
	C540.610596,580.563782 542.137512,580.645508 544.157104,580.804321 
	C554.444641,580.643860 564.239685,580.406311 574.498901,580.147461 
	C579.967957,580.082092 584.972778,580.038025 590.425964,580.035095 
	C597.923828,579.466858 604.973389,578.857483 612.466736,578.210938 
	C615.576477,578.097534 618.242432,578.021362 621.381470,578.019775 
	C677.544617,578.023010 733.234802,577.951660 789.397949,577.929443 
	C804.990479,577.976501 820.110107,578.003052 835.229309,577.937378 
	C837.187866,577.928833 839.144287,577.443481 841.401245,577.171753 
	C842.100037,577.169312 842.499329,577.174133 843.275513,577.337891 
	C847.469788,577.388245 851.287109,577.279724 855.549072,577.156555 
	C858.963318,577.154907 861.932922,577.167908 865.285339,577.343689 
	C870.142822,577.610291 874.617554,577.714111 879.553223,577.839478 
	C897.959229,578.568909 915.946289,578.750427 933.834534,580.173584 
	C945.355347,581.090149 957.005432,582.855652 968.108398,585.979248 
	C985.214722,590.791931 994.375122,602.973083 996.298340,620.799011 
	C998.056396,637.093994 996.484192,652.643188 988.011475,667.023804 
	C988.025574,667.020386 988.022583,666.991638 987.813232,667.122070 
	C987.345764,667.468994 987.156006,667.734375 987.018433,668.024292 
	C987.002441,668.000000 987.049683,668.033875 986.835510,668.153931 
	C986.353516,668.477356 986.156250,668.734863 986.016357,669.024414 
	C986.003052,669.002319 986.046875,669.029846 985.830078,669.147888 
	C985.341431,669.466431 985.137939,669.721436 985.010132,670.024780 
	C985.017517,670.018738 985.031799,670.006042 984.803955,670.110962 
	C984.363647,670.469116 984.151245,670.722412 983.966675,670.985901 
	C983.994568,670.996094 983.985046,670.937500 983.741272,671.045166 
	C983.248047,671.404602 982.998596,671.656372 982.462891,672.086914 
	C971.205017,679.644409 958.633728,681.597473 945.935913,681.762207 
	C926.320312,682.016785 906.691650,681.039795 887.070007,681.094971 
	C835.792786,681.239136 784.513306,681.427002 733.241211,682.093994 
	C714.811890,682.333740 696.400940,683.992493 677.543457,684.965271 
	C672.405334,685.304138 667.705261,685.681396 662.562622,686.046753 
	C644.183167,686.771057 626.246399,687.507202 608.309692,688.243347 
	C617.272766,689.009277 626.225037,689.147766 635.171021,688.970337 
	C644.132996,688.792664 653.088623,688.299377 662.485596,687.950684 
	C670.354187,687.686584 677.783997,687.211609 685.214294,687.205750 
	C692.150879,687.200317 699.087952,687.693115 706.491821,687.955688 
	C716.635254,687.970642 726.311768,687.996460 736.371765,688.164917 
	C743.572449,688.539490 750.388062,688.847473 757.207153,688.979675 
	C762.833801,689.088745 768.464539,688.989807 774.472595,689.010742 
	C775.864075,689.092834 776.876404,689.147217 778.272705,689.369751 
	C785.801880,689.423340 792.947083,689.308899 800.554688,689.170410 
	C809.340637,689.060059 817.664246,688.973755 826.426880,688.923950 
	C841.900696,688.879028 856.935608,688.797485 872.366455,688.810669 
	C874.394531,689.233948 876.018127,689.613464 877.659790,689.883240 
	C895.300659,692.781921 906.451355,702.818848 910.769287,720.199524 
	C915.042786,737.401245 915.240479,754.420715 907.926514,770.996216 
	C907.926514,770.996216 907.991516,771.006653 907.750305,771.096802 
	C907.045410,771.720825 906.581726,772.254761 906.117981,772.788696 
	C901.010803,779.130615 894.078552,782.556519 886.453125,784.580322 
	C880.543945,786.148499 874.484680,787.151428 867.704895,788.578003 
	C761.432678,795.966431 656.459717,791.324036 551.601318,775.029358 
	C546.557129,774.230713 541.896057,773.554932 537.235046,772.879150 
	C537.140015,773.325317 537.044983,773.771484 536.950012,774.217651 
	C548.519409,777.725891 560.077454,781.271973 571.660156,784.735596 
	C614.383728,797.511719 657.208130,809.962830 699.782104,823.218506 
	C711.112244,826.746216 722.141785,831.900330 732.490295,837.755432 
	C746.025879,845.413757 750.433167,858.415527 749.603271,873.495056 
	C748.780029,888.454529 743.869080,902.100708 736.535217,914.996765 
	C728.187439,926.537476 716.079529,928.901184 703.501770,926.266785 
	C683.810974,922.142395 664.247803,917.128784 644.971619,911.353821 
	C566.411438,887.817688 487.549286,865.503784 407.020874,849.580139 
	C368.590759,841.981018 329.833893,836.790039 290.875153,832.622498 
	C262.165771,829.551453 233.469360,828.353333 204.646820,827.666443 
	C179.528564,827.067871 154.452621,824.694641 128.438583,823.068359 
	C122.038017,822.743408 116.556831,822.455627 110.667603,822.092346 
	C108.880417,822.021790 107.501274,822.026672 105.766670,821.926392 
	C105.172310,821.757812 104.933411,821.694580 104.694519,821.631287 
	C87.637627,818.196106 79.785225,805.152893 74.316818,790.787720 
	C67.010223,771.593872 63.769176,751.272766 61.263683,730.954163 
	C59.378475,715.665771 58.433247,700.261475 57.092678,684.003418 
	C56.826679,677.008789 56.537594,670.919495 56.248505,664.830261 
	C56.255596,663.850098 56.262688,662.869934 56.392593,661.230591 
	C56.428562,659.327698 56.341721,658.084045 56.254875,656.840332 
	C56.395626,654.832947 56.536377,652.825623 56.711357,650.164795 
	C56.725605,649.326782 56.705631,649.142212 56.685654,648.957703 
	C56.882080,617.571411 59.379177,586.368774 66.296547,555.733215 
	C69.656677,540.851929 74.000160,525.998230 83.427055,513.483765 
	C86.402122,509.534363 90.308838,506.286713 94.331299,502.355286 
	C98.581993,500.058960 102.290543,498.125244 105.999100,496.191559 
M522.291016,680.122070 
	C520.074951,680.122070 517.858948,680.122070 515.642883,680.122070 
	C536.952637,683.852356 557.976562,689.664429 579.841370,685.730164 
	C560.700806,686.183899 541.797607,684.453735 522.291016,680.122070 
M600.530151,688.844971 
	C601.209351,688.673401 601.888550,688.501831 602.567810,688.330261 
	C602.539185,688.061707 602.510559,687.793213 602.481995,687.524658 
	C600.977234,687.524658 599.472534,687.524658 597.967834,687.524658 
	C597.929443,687.713989 597.891113,687.903320 597.852722,688.092651 
	C598.553650,688.330627 599.254517,688.568604 600.530151,688.844971 
M586.939575,687.698181 
	C587.017944,687.248596 587.096313,686.798950 587.174622,686.349365 
	C586.570679,686.438049 585.966736,686.526733 585.362793,686.615356 
	C585.732727,686.991394 586.102722,687.367432 586.939575,687.698181 
z"/>
<path fill="#7B2D6C" opacity="1.000000" stroke="none" 
	d="
M864.902588,577.180908 
	C861.932922,577.167908 858.963318,577.154907 855.083374,577.071350 
	C850.414978,577.060242 846.656799,577.119629 842.898682,577.178955 
	C842.499329,577.174133 842.100037,577.169312 840.928711,577.087158 
	C823.132263,577.048401 806.107788,577.087036 788.611084,577.082092 
	C734.016052,577.045471 679.893250,577.044678 625.770508,577.096375 
	C624.149536,577.097900 622.529053,577.649780 620.908386,577.945129 
	C618.242432,578.021362 615.576477,578.097534 612.002563,578.125610 
	C608.319153,578.062866 605.518616,577.806091 602.773926,578.089539 
	C598.488708,578.532104 594.241150,579.340576 589.977661,579.994019 
	C584.972778,580.038025 579.967957,580.082092 574.060913,580.082275 
	C571.095398,580.003540 569.032043,579.968811 566.847290,579.866577 
	C566.445740,579.713196 566.175842,579.740662 565.453003,579.870728 
	C557.881348,580.149109 550.772888,580.438171 543.664490,580.727295 
	C542.137512,580.645508 540.610596,580.563782 538.435547,580.205627 
	C530.518921,578.300293 523.070801,577.219055 516.026062,574.908142 
	C506.545105,571.798096 505.582825,567.101257 511.072144,558.695618 
	C516.664246,550.132629 525.075928,545.121033 533.277466,539.737305 
	C540.304260,535.124634 546.638489,529.841858 550.475769,522.078735 
	C557.318176,508.236023 556.390015,494.151855 550.784302,480.449493 
	C543.209045,461.932770 530.320374,449.257355 509.239166,447.954620 
	C494.773041,447.060638 480.480682,445.472137 466.258362,442.577179 
	C459.360229,441.173065 452.112976,441.483978 445.023804,441.018463 
	C438.328461,440.648102 431.633087,440.277740 424.248291,439.602478 
	C421.836273,438.864594 420.136658,438.242218 418.387299,438.030609 
	C409.614990,436.969604 400.925171,435.895660 393.521484,430.269257 
	C375.968903,416.930206 373.016846,398.709473 375.874878,378.465942 
	C383.028259,367.075500 391.016937,356.117065 397.174408,344.211517 
	C413.916443,311.840546 429.077423,278.631439 446.450104,246.614548 
	C457.438782,226.363083 470.982819,207.459229 483.961395,188.345230 
	C489.297882,180.485931 496.618530,174.248886 505.586273,170.317871 
	C514.088379,166.590958 523.198853,166.879211 531.633362,168.679764 
	C547.341431,172.032990 561.544006,179.110855 571.822754,192.122986 
	C578.173706,200.162811 580.429016,209.494324 579.610657,219.771835 
	C578.030090,239.622803 570.581055,257.876282 564.798157,276.609772 
	C559.158569,294.878693 553.351135,313.135864 548.810486,331.690155 
	C545.672607,344.512268 545.386780,357.940948 549.421936,370.765900 
	C552.573669,380.783264 560.131531,387.665039 568.310303,394.023529 
	C576.054749,400.044281 585.156189,400.679810 594.134338,401.776855 
	C609.652832,403.673004 625.124146,405.440308 640.064941,410.533295 
	C654.058289,415.303314 664.096863,424.777527 671.701172,436.788544 
	C679.180969,448.603058 683.162292,461.747864 683.690063,475.925537 
	C684.136597,487.923492 680.533081,498.858063 676.095337,509.671906 
	C673.950012,514.899475 671.551392,520.030457 669.600586,525.327820 
	C668.375793,528.653748 668.896790,531.541626 672.169678,534.084229 
	C677.978455,538.596924 684.642700,540.123169 691.623291,541.011475 
	C716.045288,544.119141 740.386108,542.243652 764.803833,540.453918 
	C780.022217,539.338379 795.375732,540.084778 810.668396,539.961670 
	C829.123718,539.813049 847.578491,539.537598 866.033875,539.495850 
	C876.019653,539.473206 886.005798,539.944336 895.992493,539.978760 
	C916.227966,540.048401 936.464783,540.090759 956.699280,539.926575 
	C981.901978,539.722168 1007.110413,538.761719 1032.302246,539.121094 
	C1056.891724,539.471802 1081.497070,540.599426 1106.027832,542.338928 
	C1117.199951,543.131165 1128.332031,545.581909 1138.605103,550.854919 
	C1153.518921,558.509827 1159.839478,571.203552 1159.381470,587.202271 
	C1159.146484,595.407776 1157.664185,603.815308 1155.249146,611.671387 
	C1150.168701,628.198181 1136.741333,635.963745 1121.087280,638.834167 
	C1107.627808,641.302002 1093.704102,642.003845 1079.977417,642.083557 
	C1053.562500,642.237061 1027.141602,641.398010 1000.273071,640.536072 
	C999.869324,634.775879 1000.203186,629.433899 999.905029,624.127563 
	C999.187805,611.360229 995.267578,599.883179 984.841492,591.649841 
	C976.769104,585.275024 967.095825,582.590698 957.145569,581.136230 
	C931.231812,577.348267 905.124512,576.851868 878.527344,577.005188 
	C873.676392,577.050110 869.289490,577.115540 864.902588,577.180908 
z"/>
<path fill="#7C2D6C" opacity="1.000000" stroke="none" 
	d="
M551.984558,775.152222 
	C656.459717,791.324036 761.432678,795.966431 867.337646,788.726196 
	C875.269470,793.237976 883.229553,797.181396 890.189392,802.446838 
	C901.014465,810.636536 906.152466,823.814453 902.549744,840.824463 
	C900.380981,851.064636 896.819824,860.403687 891.079407,869.187744 
	C883.374451,880.977844 871.906799,884.379211 858.962036,885.094482 
	C846.422302,885.787415 834.621948,881.946289 822.852173,878.543762 
	C800.219116,872.000671 777.728333,864.965576 755.181946,858.123291 
	C754.388611,857.882507 753.631653,857.521790 752.424561,856.761414 
	C749.837341,848.592773 745.176514,842.627747 738.818481,837.992615 
	C727.745483,829.919983 715.013306,825.274414 702.098450,821.370667 
	C653.933777,806.811768 605.674744,792.565063 557.474670,778.122803 
	C555.523132,777.538086 553.809204,776.160461 551.984558,775.152222 
z"/>
<path fill="#7C2D6C" opacity="1.000000" stroke="none" 
	d="
M735.988220,688.022217 
	C726.311768,687.996460 716.635254,687.970642 706.218323,687.710388 
	C703.069885,687.085754 700.675171,686.526550 698.251526,686.337402 
	C691.501343,685.810608 684.739075,685.437500 677.981628,685.003662 
	C696.400940,683.992493 714.811890,682.333740 733.241211,682.093994 
	C784.513306,681.427002 835.792786,681.239136 887.070007,681.094971 
	C906.691650,681.039795 926.320312,682.016785 945.935913,681.762207 
	C958.633728,681.597473 971.205017,679.644409 982.704468,671.971252 
	C983.483215,671.430359 983.734131,671.183899 983.985046,670.937500 
	C983.985046,670.937500 983.994568,670.996094 984.185669,670.868652 
	C984.656494,670.550781 984.874817,670.305725 985.031799,670.006042 
	C985.031799,670.006042 985.017517,670.018738 985.226440,669.905884 
	C985.705627,669.591858 985.909485,669.337463 986.046875,669.029846 
	C986.046875,669.029846 986.003052,669.002319 986.228027,668.901184 
	C986.717224,668.595459 986.916138,668.340088 987.049683,668.033875 
	C987.049683,668.033875 987.002441,668.000000 987.228149,667.893921 
	C987.714050,667.572876 987.903625,667.307434 988.022583,666.991638 
	C988.022583,666.991638 988.025574,667.020386 988.335449,666.917053 
	C991.760803,660.864868 994.876282,654.916016 997.991821,648.967163 
	C1012.111633,648.487366 1026.225952,648.196289 1040.002319,652.138550 
	C1063.531616,658.871582 1070.402466,672.381104 1072.375977,692.994019 
	C1073.268311,702.316223 1072.211426,711.476379 1068.561157,720.345276 
	C1064.328735,730.628662 1056.529785,736.751648 1046.670776,740.833191 
	C1028.610229,748.310059 1009.414978,749.139404 990.317932,749.947998 
	C970.562378,750.784546 950.773499,750.855896 930.997925,751.179993 
	C926.540710,751.253113 922.077881,750.987122 917.244873,750.467651 
	C916.914795,744.903503 917.080200,739.746460 916.973999,734.594910 
	C916.771362,724.759216 914.182251,715.460632 909.306702,706.993042 
	C901.068726,692.685852 887.170532,688.920898 871.623535,687.714111 
	C857.298035,687.429626 843.352661,687.253296 829.406982,687.235229 
	C828.268066,687.233704 827.127625,688.311340 825.987854,688.887451 
	C817.664246,688.973755 809.340637,689.060059 800.082581,689.092346 
	C792.061646,689.092834 784.975220,689.147217 777.888733,689.201660 
	C776.876404,689.147217 775.864075,689.092834 774.090210,688.832886 
	C761.657410,688.165649 749.986694,687.687500 738.313538,687.279602 
	C737.547974,687.252747 736.763733,687.762207 735.988220,688.022217 
z"/>
<path fill="#8F685E" opacity="1.000000" stroke="none" 
	d="
M375.875122,377.977173 
	C373.016846,398.709473 375.968903,416.930206 393.521484,430.269257 
	C400.925171,435.895660 409.614990,436.969604 418.387299,438.030609 
	C420.136658,438.242218 421.836273,438.864594 423.785583,439.580933 
	C417.224640,439.159576 410.390503,438.749176 403.659576,437.685516 
	C391.677124,435.791962 373.682373,421.945190 370.278778,405.226227 
	C367.697388,392.546082 368.548920,379.932739 371.599884,367.630585 
	C378.370819,340.328735 385.918060,313.220245 392.875092,285.963074 
	C394.801880,278.414062 396.243927,270.671265 397.081726,262.927979 
	C399.296936,242.453934 390.193451,227.159286 373.198883,216.961670 
	C363.315399,211.031052 352.162750,207.215469 341.282562,202.241821 
	C356.984070,203.385345 370.498230,210.746582 383.201355,219.821793 
	C400.030609,231.844772 405.383087,248.796600 401.195343,268.227600 
	C396.608978,289.508118 390.087311,310.364044 385.051758,331.557739 
	C381.445038,346.737762 378.896179,362.169128 375.875122,377.977173 
z"/>
<path fill="#8F6761" opacity="1.000000" stroke="none" 
	d="
M551.601318,775.029358 
	C553.809204,776.160461 555.523132,777.538086 557.474670,778.122803 
	C605.674744,792.565063 653.933777,806.811768 702.098450,821.370667 
	C715.013306,825.274414 727.745483,829.919983 738.818481,837.992615 
	C745.176514,842.627747 749.837341,848.592773 752.073853,856.675049 
	C755.211365,876.554260 751.295349,894.572083 740.504822,911.086182 
	C739.620789,912.439148 738.339478,913.532654 736.889038,914.871765 
	C743.869080,902.100708 748.780029,888.454529 749.603271,873.495056 
	C750.433167,858.415527 746.025879,845.413757 732.490295,837.755432 
	C722.141785,831.900330 711.112244,826.746216 699.782104,823.218506 
	C657.208130,809.962830 614.383728,797.511719 571.660156,784.735596 
	C560.077454,781.271973 548.519409,777.725891 536.950012,774.217651 
	C537.044983,773.771484 537.140015,773.325317 537.235046,772.879150 
	C541.896057,773.554932 546.557129,774.230713 551.601318,775.029358 
z"/>
<path fill="#8F6761" opacity="1.000000" stroke="none" 
	d="
M998.001343,648.580261 
	C994.876282,654.916016 991.760803,660.864868 988.321411,666.920410 
	C996.484192,652.643188 998.056396,637.093994 996.298340,620.799011 
	C994.375122,602.973083 985.214722,590.791931 968.108398,585.979248 
	C957.005432,582.855652 945.355347,581.090149 933.834534,580.173584 
	C915.946289,578.750427 897.959229,578.568909 879.526611,577.641968 
	C879.039124,577.422913 878.991394,577.025635 878.991394,577.025635 
	C905.124512,576.851868 931.231812,577.348267 957.145569,581.136230 
	C967.095825,582.590698 976.769104,585.275024 984.841492,591.649841 
	C995.267578,599.883179 999.187805,611.360229 999.905029,624.127563 
	C1000.203186,629.433899 999.869324,634.775879 999.789917,640.576233 
	C999.174927,643.431641 998.592957,645.812500 998.001343,648.580261 
z"/>
<path fill="#8F6761" opacity="1.000000" stroke="none" 
	d="
M872.003540,687.863281 
	C887.170532,688.920898 901.068726,692.685852 909.306702,706.993042 
	C914.182251,715.460632 916.771362,724.759216 916.973999,734.594910 
	C917.080200,739.746460 916.914795,744.903503 916.847046,750.526245 
	C915.154846,755.947693 913.616882,760.950378 911.752075,765.828247 
	C911.078735,767.589417 909.621521,769.050964 908.224304,770.822754 
	C915.240479,754.420715 915.042786,737.401245 910.769287,720.199524 
	C906.451355,702.818848 895.300659,692.781921 877.659790,689.883240 
	C876.018127,689.613464 874.394531,689.233948 872.375610,688.597900 
	C871.988770,688.290466 872.003540,687.863281 872.003540,687.863281 
z"/>
<path fill="#353A82" opacity="1.000000" stroke="none" 
	d="
M111.075638,822.167847 
	C116.556831,822.455627 122.038017,822.743408 128.031006,823.062683 
	C122.466759,831.914062 114.074913,837.246399 103.331566,839.653809 
	C102.997162,839.033325 103.030182,838.349670 103.426643,837.234009 
	C104.528801,835.899292 105.267517,834.996765 106.105736,833.750244 
	C107.828697,829.660095 109.452156,825.914001 111.075638,822.167847 
z"/>
<path fill="#9280AD" opacity="1.000000" stroke="none" 
	d="
M74.463707,840.178833 
	C77.431984,840.151917 80.765327,840.257874 84.447754,840.506165 
	C81.474152,840.536194 78.151466,840.423950 74.463707,840.178833 
z"/>
<path fill="#9280AD" opacity="1.000000" stroke="none" 
	d="
M92.607315,840.758545 
	C95.128441,840.442139 98.062401,840.201599 101.414597,840.003052 
	C98.895264,840.308105 95.957703,840.571228 92.607315,840.758545 
z"/>
<path fill="#8F6761" opacity="1.000000" stroke="none" 
	d="
M906.369141,772.686829 
	C906.581726,772.254761 907.045410,771.720825 907.752319,771.063904 
	C907.537109,771.488953 907.078674,772.036926 906.369141,772.686829 
z"/>
<path fill="#403E89" opacity="1.000000" stroke="none" 
	d="
M105.656265,496.047760 
	C102.290543,498.125244 98.581993,500.058960 94.531372,502.090607 
	C94.064507,500.844360 93.939690,499.500153 93.754547,497.762970 
	C97.567291,496.881317 101.440361,496.392639 105.656265,496.047760 
z"/>
<path fill="#403E89" opacity="1.000000" stroke="none" 
	d="
M106.006241,834.094177 
	C105.267517,834.996765 104.528801,835.899292 103.503693,836.900146 
	C103.556839,832.072388 103.896378,827.146301 104.465218,821.925781 
	C104.933411,821.694580 105.172310,821.757812 105.714806,822.338501 
	C106.014343,826.601929 106.010292,830.348083 106.006241,834.094177 
z"/>
<path fill="#9280AD" opacity="1.000000" stroke="none" 
	d="
M56.189278,665.309814 
	C56.537594,670.919495 56.826679,677.008789 57.073471,683.570068 
	C56.730797,677.957947 56.430424,671.873657 56.189278,665.309814 
z"/>
<path fill="#9280AD" opacity="1.000000" stroke="none" 
	d="
M56.196194,657.269775 
	C56.341721,658.084045 56.428562,659.327698 56.375515,660.863342 
	C56.202923,660.003296 56.170216,658.851257 56.196194,657.269775 
z"/>
<path fill="#403E89" opacity="1.000000" stroke="none" 
	d="
M86.214386,499.893677 
	C86.415550,499.698914 86.877228,499.475555 87.586975,499.208923 
	C87.381660,499.398834 86.928284,499.631958 86.214386,499.893677 
z"/>
<path fill="#9280AD" opacity="1.000000" stroke="none" 
	d="
M56.634979,649.092896 
	C56.705631,649.142212 56.725605,649.326782 56.731140,649.789246 
	C56.574631,649.802734 56.530499,649.523010 56.634979,649.092896 
z"/>
<path fill="#8C675D" opacity="1.000000" stroke="none" 
	d="
M445.376160,441.178955 
	C452.112976,441.483978 459.360229,441.173065 466.258362,442.577179 
	C480.480682,445.472137 494.773041,447.060638 509.239166,447.954620 
	C530.320374,449.257355 543.209045,461.932770 550.784302,480.449493 
	C556.390015,494.151855 557.318176,508.236023 550.475769,522.078735 
	C546.638489,529.841858 540.304260,535.124634 533.277466,539.737305 
	C525.075928,545.121033 516.664246,550.132629 511.072144,558.695618 
	C505.582825,567.101257 506.545105,571.798096 516.026062,574.908142 
	C523.070801,577.219055 530.518921,578.300293 538.054565,580.184814 
	C529.216797,578.879456 519.952148,577.921509 511.057068,575.567566 
	C503.886963,573.670105 502.101105,569.029602 504.734558,562.125183 
	C505.957428,558.919189 508.005737,555.978760 509.961914,553.110291 
	C517.816772,541.592102 523.824524,529.471619 525.470093,515.286865 
	C527.653870,496.463715 520.687012,481.008545 508.772827,467.396606 
	C495.034790,451.700928 476.312073,446.147430 456.556519,443.073700 
	C452.944672,442.511719 449.337708,441.918335 445.376160,441.178955 
z"/>
<path fill="#8C5D66" opacity="1.000000" stroke="none" 
	d="
M621.381470,578.019653 
	C622.529053,577.649780 624.149536,577.097900 625.770508,577.096375 
	C679.893250,577.044678 734.016052,577.045471 788.571411,577.270508 
	C789.003906,577.502380 788.924927,577.880310 788.924927,577.880310 
	C733.234802,577.951660 677.544617,578.023010 621.381470,578.019653 
z"/>
<path fill="#A88579" opacity="1.000000" stroke="none" 
	d="
M522.729492,680.166382 
	C541.797607,684.453735 560.700806,686.183899 579.841370,685.730164 
	C557.976562,689.664429 536.952637,683.852356 515.642883,680.122070 
	C517.858948,680.122070 520.074951,680.122070 522.729492,680.166382 
z"/>
<path fill="#A88579" opacity="1.000000" stroke="none" 
	d="
M662.047058,687.944458 
	C653.088623,688.299377 644.132996,688.792664 635.171021,688.970337 
	C626.225037,689.147766 617.272766,689.009277 608.309692,688.243347 
	C626.246399,687.507202 644.183167,686.771057 662.437195,686.279541 
	C662.518677,686.997559 662.282898,687.471008 662.047058,687.944458 
z"/>
<path fill="#A07A71" opacity="1.000000" stroke="none" 
	d="
M662.485596,687.950684 
	C662.282898,687.471008 662.518677,686.997559 662.879883,686.291382 
	C667.705261,685.681396 672.405334,685.304138 677.543457,684.965210 
	C684.739075,685.437500 691.501343,685.810608 698.251526,686.337402 
	C700.675171,686.526550 703.069885,687.085754 705.751343,687.721252 
	C699.087952,687.693115 692.150879,687.200317 685.214294,687.205750 
	C677.783997,687.211609 670.354187,687.686584 662.485596,687.950684 
z"/>
<path fill="#8C5D66" opacity="1.000000" stroke="none" 
	d="
M871.623535,687.714111 
	C872.003540,687.863281 871.988770,688.290466 871.979614,688.503174 
	C856.935608,688.797485 841.900696,688.879028 826.426880,688.923950 
	C827.127625,688.311340 828.268066,687.233704 829.406982,687.235229 
	C843.352661,687.253296 857.298035,687.429626 871.623535,687.714111 
z"/>
<path fill="#8F6761" opacity="1.000000" stroke="none" 
	d="
M736.371765,688.164917 
	C736.763733,687.762207 737.547974,687.252747 738.313538,687.279602 
	C749.986694,687.687500 761.657410,688.165649 773.711060,688.805176 
	C768.464539,688.989807 762.833801,689.088745 757.207153,688.979675 
	C750.388062,688.847473 743.572449,688.539490 736.371765,688.164917 
z"/>
<path fill="#A07A71" opacity="1.000000" stroke="none" 
	d="
M789.397949,577.929443 
	C788.924927,577.880310 789.003906,577.502380 789.043579,577.313965 
	C806.107788,577.087036 823.132263,577.048401 840.629272,577.094360 
	C839.144287,577.443481 837.187866,577.928833 835.229309,577.937378 
	C820.110107,578.003052 804.990479,577.976501 789.397949,577.929443 
z"/>
<path fill="#757DCD" opacity="1.000000" stroke="none" 
	d="
M106.105736,833.750244 
	C106.010292,830.348083 106.014343,826.601929 106.070259,822.443726 
	C107.501274,822.026672 108.880417,822.021790 110.667595,822.092407 
	C109.452156,825.914001 107.828697,829.660095 106.105736,833.750244 
z"/>
<path fill="#A07A71" opacity="1.000000" stroke="none" 
	d="
M544.157104,580.804321 
	C550.772888,580.438171 557.881348,580.149109 565.715820,579.892151 
	C566.617493,579.927490 566.793152,579.930786 566.968750,579.934082 
	C569.032043,579.968811 571.095398,580.003540 573.596680,580.103516 
	C564.239685,580.406311 554.444641,580.643860 544.157104,580.804321 
z"/>
<path fill="#A88579" opacity="1.000000" stroke="none" 
	d="
M590.425964,580.035095 
	C594.241150,579.340576 598.488708,578.532104 602.773926,578.089539 
	C605.518616,577.806091 608.319153,578.062866 611.558777,578.162842 
	C604.973389,578.857483 597.923828,579.466858 590.425964,580.035095 
z"/>
<path fill="#A07A71" opacity="1.000000" stroke="none" 
	d="
M778.272705,689.369751 
	C784.975220,689.147217 792.061646,689.092834 799.620239,689.116455 
	C792.947083,689.308899 785.801880,689.423340 778.272705,689.369751 
z"/>
<path fill="#A07A71" opacity="1.000000" stroke="none" 
	d="
M878.527344,577.005188 
	C878.991394,577.025635 879.039124,577.422913 879.065674,577.620422 
	C874.617554,577.714111 870.142822,577.610291 865.285339,577.343750 
	C869.289490,577.115540 873.676392,577.050110 878.527344,577.005188 
z"/>
<path fill="#A88579" opacity="1.000000" stroke="none" 
	d="
M600.242798,688.825806 
	C599.254517,688.568604 598.553650,688.330627 597.852722,688.092651 
	C597.891113,687.903320 597.929443,687.713989 597.967834,687.524658 
	C599.472534,687.524658 600.977234,687.524658 602.481995,687.524658 
	C602.510559,687.793213 602.539185,688.061707 602.567810,688.330261 
	C601.888550,688.501831 601.209351,688.673401 600.242798,688.825806 
z"/>
<path fill="#A07A71" opacity="1.000000" stroke="none" 
	d="
M843.275513,577.337891 
	C846.656799,577.119629 850.414978,577.060242 854.638794,577.085999 
	C851.287109,577.279724 847.469788,577.388245 843.275513,577.337891 
z"/>
<path fill="#A88579" opacity="1.000000" stroke="none" 
	d="
M586.706177,687.720825 
	C586.102722,687.367432 585.732727,686.991394 585.362793,686.615356 
	C585.966736,686.526733 586.570679,686.438049 587.174683,686.349365 
	C587.096313,686.798950 587.017944,687.248596 586.706177,687.720825 
z"/>
<path fill="#8F6761" opacity="1.000000" stroke="none" 
	d="
M983.741272,671.045166 
	C983.734131,671.183899 983.483215,671.430359 982.990723,671.792480 
	C982.998596,671.656372 983.248047,671.404602 983.741272,671.045166 
z"/>
<path fill="#8F6761" opacity="1.000000" stroke="none" 
	d="
M984.803955,670.110962 
	C984.874817,670.305725 984.656494,670.550781 984.157837,670.858521 
	C984.151245,670.722412 984.363647,670.469116 984.803955,670.110962 
z"/>
<path fill="#8F6761" opacity="1.000000" stroke="none" 
	d="
M985.830078,669.147888 
	C985.909485,669.337463 985.705627,669.591858 985.218994,669.911987 
	C985.137939,669.721436 985.341431,669.466431 985.830078,669.147888 
z"/>
<path fill="#8F6761" opacity="1.000000" stroke="none" 
	d="
M986.835510,668.153931 
	C986.916138,668.340088 986.717224,668.595459 986.241333,668.923218 
	C986.156250,668.734863 986.353516,668.477356 986.835510,668.153931 
z"/>
<path fill="#8F6761" opacity="1.000000" stroke="none" 
	d="
M987.813232,667.122070 
	C987.903625,667.307434 987.714050,667.572876 987.244141,667.918213 
	C987.156006,667.734375 987.345764,667.468994 987.813232,667.122070 
z"/>
<path fill="#8C675D" opacity="1.000000" stroke="none" 
	d="
M566.847290,579.866577 
	C566.793152,579.930786 566.617493,579.927490 566.179077,579.902832 
	C566.175842,579.740662 566.445740,579.713196 566.847290,579.866577 
z"/>
</svg>